<svg width="259" height="355" viewBox="0 0 259 355" fill="none" xmlns="http://www.w3.org/2000/svg">
<path fill-rule="evenodd" clip-rule="evenodd" d="M159.608 201.548C159.932 244.628 127.631 280.148 86.4002 283.446L86.6206 312.774L115.013 312.561C116.519 312.55 117.968 313.152 119.041 314.237C120.114 315.321 120.723 316.798 120.735 318.343C120.746 319.888 120.159 321.374 119.103 322.474C118.046 323.575 116.606 324.199 115.1 324.211L86.7082 324.424L86.8833 347.723C86.8949 349.268 86.3077 350.754 85.251 351.855C84.1943 352.955 82.7546 353.58 81.2486 353.591C79.7426 353.602 78.2937 352.999 77.2206 351.915C76.1474 350.831 75.538 349.354 75.5264 347.809L75.3513 324.509L46.9593 324.723C45.4533 324.734 44.0043 324.131 42.9312 323.047C41.8581 321.962 41.2487 320.485 41.2371 318.941C41.2255 317.396 41.8126 315.91 42.8693 314.809C43.926 313.709 45.3657 313.084 46.8718 313.073L75.2638 312.86L75.0434 283.532C33.7673 280.853 0.936495 245.817 0.612803 202.743C0.274361 157.705 35.5923 120.927 79.4978 120.597C123.403 120.267 159.27 156.51 159.608 201.548ZM80.6358 272.043C118.267 271.76 148.542 240.234 148.251 201.633C147.961 163.032 117.216 131.964 79.5853 132.247C41.9545 132.53 11.6796 164.056 11.9696 202.657C12.2597 241.258 43.005 272.326 80.6358 272.043Z" fill="#C1151B" fill-opacity="0.807843"/>
<path fill-rule="evenodd" clip-rule="evenodd" d="M195.111 5.55556C195.111 4.08213 195.696 2.66905 196.738 1.62719C197.78 0.585317 199.193 0 200.667 0H259V58.3333C259 59.8068 258.415 61.2198 257.373 62.2617C256.331 63.3036 254.918 63.8889 253.444 63.8889C251.971 63.8889 250.558 63.3036 249.516 62.2617C248.474 61.2198 247.889 59.8068 247.889 58.3333V18.9667L200.311 66.5444C213.106 81.1943 220.142 99.9938 220.111 119.444C220.111 163.933 184.044 200 139.556 200C95.0667 200 59 163.933 59 119.444C59 74.9556 95.0667 38.8889 139.556 38.8889C159.8 38.8889 178.3 46.3555 192.456 58.6889L240.033 11.1111H200.667C199.193 11.1111 197.78 10.5258 196.738 9.48393C195.696 8.44206 195.111 7.02898 195.111 5.55556ZM139.556 188.889C177.911 188.889 209 157.8 209 119.444C209 81.0889 177.911 50 139.556 50C101.2 50 70.1111 81.0889 70.1111 119.444C70.1111 157.8 101.2 188.889 139.556 188.889Z" fill="#C1151B" fill-opacity="0.807843"/>
</svg>
